<?xml version="1.0" encoding="iso-8859-1"?>
<!-- Uploaded to: SVG Repo, www.svgrepo.com, Generator: SVG Repo Mixer Tools -->
<svg fill="#000000" height="800px" width="800px" version="1.1" id="Layer_1" xmlns="http://www.w3.org/2000/svg" xmlns:xlink="http://www.w3.org/1999/xlink" 
	 viewBox="0 0 512 512" xml:space="preserve">
<g>
	<g>
		<path d="M54.532,211.26c-4.484-4.476-12.484-4.476-16.96,0c-2.244,2.24-3.524,5.32-3.524,8.484c0,3.156,1.28,6.236,3.524,8.476
			c2.24,2.244,5.32,3.524,8.476,3.524c3.164,0,6.24-1.284,8.484-3.524c2.244-2.236,3.516-5.32,3.516-8.476
			C58.048,216.58,56.776,213.504,54.532,211.26z"/>
	</g>
</g>
<g>
	<g>
		<path d="M467.36,211.26c-4.484-4.476-12.484-4.476-16.96,0c-2.244,2.24-3.524,5.32-3.524,8.484c0,3.156,1.28,6.236,3.524,8.476
			c2.24,2.244,5.32,3.524,8.476,3.524c3.164,0,6.24-1.284,8.484-3.524c2.244-2.236,3.516-5.32,3.516-8.476
			C470.876,216.58,469.604,213.504,467.36,211.26z"/>
	</g>
</g>
<g>
	<g>
		<path d="M54.532,403.348c-4.484-4.48-12.484-4.48-16.96,0c-2.244,2.236-3.524,5.32-3.524,8.48c0,3.156,1.284,6.24,3.524,8.48
			c2.24,2.24,5.32,3.52,8.476,3.52c3.164,0,6.24-1.284,8.484-3.52c2.244-2.236,3.516-5.324,3.516-8.48
			C58.048,408.668,56.776,405.588,54.532,403.348z"/>
	</g>
</g>
<g>
	<g>
		<path d="M467.36,407.348c-4.484-4.48-12.484-4.48-16.96,0c-2.244,2.236-3.524,5.32-3.524,8.48c0,3.156,1.284,6.24,3.524,8.48
			c2.24,2.24,5.32,3.52,8.476,3.52c3.164,0,6.24-1.284,8.484-3.52c2.244-2.236,3.516-5.324,3.516-8.48
			C470.876,412.668,469.604,409.588,467.36,407.348z"/>
	</g>
</g>
<g>
	<g>
		<path d="M346.296,146.204c-0.664-1.4-2.068-2.204-3.616-2.204H312V51.86c0-2.212-3.548-3.86-5.756-3.86h-103.9
			c-2.212,0-2.344,1.648-2.344,3.86V144h-33.592c-1.548,0-2.956,0.804-3.612,2.204c-0.664,1.4-0.46,2.968,0.516,4.168L251.456,257.9
			c0.756,0.924,1.888,1.464,3.092,1.464c1.192,0,2.336-0.524,3.092-1.448l88.132-107.504
			C346.748,149.212,346.952,147.604,346.296,146.204z"/>
	</g>
</g>
<g>
	<g>
		<path d="M498.624,168h-136l-19.672,24H488v248H24V192h142.14l-19.672-24H10.46C3.836,168,0,173.048,0,179.672v272.132
			C0,458.428,3.836,464,10.46,464h488.164c6.632,0,13.376-5.572,13.376-12.196V179.672C512,173.048,505.256,168,498.624,168z"/>
	</g>
</g>
<g>
	<g>
		<path d="M459.436,249.056c-18.368,0-33.592-14.812-33.592-33.188c0-2.212-2.072-3.868-4.28-3.868h-95.056l-31.92,38.824
			c13.516,14.648,22.124,36.476,22.124,60.98c0,44.104-27.836,79.82-62.164,79.82c-34.336,0-62.164-35.764-62.164-79.872
			c0-24.504,8.608-46.276,22.124-60.924L182.584,212H83.36c-2.212,0-4,1.656-4,3.868c0,18.376-13.968,33.252-32.336,33.252
			c-2.212,0-3.024,1.724-3.024,3.932V374.42c0,2.212,0.812,4,3.024,4c18.368,0,32.824,15.08,32.824,33.444
			c0,2.212,1.3,4.132,3.512,4.132h338.204c2.212,0,4-1.92,4-4.132c0-18.368,15.508-33.376,33.876-33.376
			c2.212,0,4.564-1.86,4.564-4.072v-121.36C464,250.844,461.648,249.056,459.436,249.056z M114.64,343.516
			c-15.344,0-27.78-12.44-27.78-27.78c0-15.344,12.436-27.78,27.78-27.78s27.78,12.436,27.78,27.78
			C142.42,331.076,129.984,343.516,114.64,343.516z M394.248,343.516c-15.336,0-27.78-12.44-27.78-27.78
			c0-15.344,12.444-27.78,27.78-27.78c15.344,0,27.78,12.436,27.78,27.78C422.032,331.076,409.592,343.516,394.248,343.516z"/>
	</g>
</g>
<g>
	<g>
		<path d="M272,341.04v-13.764c8-6.96,11.556-21.428,11.556-35.868c0-9.68-1.716-16.584-5.02-21.436l-2.48,3.176
			c-5.344,6.492-13.164,10.216-21.572,10.216c-8.428,0-16.296-3.74-21.624-10.248l-2.016-2.476c-3.04,4.816-5.36,11.532-5.36,20.772
			c0,14.436,6.516,28.908,10.516,35.868v13.764c-16,2.392-36,8.756-36,26.752v25.28L228.548,412h72.664l10.18-43.412
			C311.392,350.596,288,343.428,272,341.04z"/>
	</g>
</g>
</svg>